<mxfile host="app.diagrams.net" agent="Mozilla/5.0 (Windows NT 10.0; Win64; x64) AppleWebKit/537.36 (KHTML, like Gecko) Chrome/137.0.0.0 Safari/537.36" version="27.1.4">
  <diagram name="Page-1" id="J2R1Xr31RJkNJs_bwJ8Y">
    <mxGraphModel dx="2572" dy="2054" grid="1" gridSize="10" guides="1" tooltips="1" connect="1" arrows="1" fold="1" page="1" pageScale="1" pageWidth="850" pageHeight="1100" math="0" shadow="0">
      <root>
        <mxCell id="0" />
        <mxCell id="1" parent="0" />
        <mxCell id="79Hl18eER1c-S-mIcMFc-1" value="Messages" style="html=1;dashed=0;whiteSpace=wrap;direction=east;flipH=1;flipV=0;" parent="1" vertex="1">
          <mxGeometry x="820" y="280" width="100" height="50" as="geometry" />
        </mxCell>
        <mxCell id="79Hl18eER1c-S-mIcMFc-2" value="ID" style="ellipse;whiteSpace=wrap;html=1;align=center;direction=east;flipH=1;flipV=0;" parent="1" vertex="1">
          <mxGeometry x="1035" y="120" width="100" height="40" as="geometry" />
        </mxCell>
        <mxCell id="79Hl18eER1c-S-mIcMFc-3" value="MsgID" style="ellipse;whiteSpace=wrap;html=1;align=center;direction=east;flipH=1;flipV=0;" parent="1" vertex="1">
          <mxGeometry x="1240" y="20" width="100" height="40" as="geometry" />
        </mxCell>
        <mxCell id="79Hl18eER1c-S-mIcMFc-4" value="SenderID" style="ellipse;whiteSpace=wrap;html=1;align=center;direction=east;flipH=1;flipV=0;" parent="1" vertex="1">
          <mxGeometry x="1240" y="120" width="100" height="40" as="geometry" />
        </mxCell>
        <mxCell id="79Hl18eER1c-S-mIcMFc-5" value="ReceiverID" style="ellipse;whiteSpace=wrap;html=1;align=center;direction=east;flipH=1;flipV=0;" parent="1" vertex="1">
          <mxGeometry x="1240" y="220" width="100" height="40" as="geometry" />
        </mxCell>
        <mxCell id="79Hl18eER1c-S-mIcMFc-7" value="" style="endArrow=none;html=1;rounded=0;entryX=1;entryY=0.5;entryDx=0;entryDy=0;exitX=0;exitY=0.5;exitDx=0;exitDy=0;" parent="1" source="79Hl18eER1c-S-mIcMFc-17" target="79Hl18eER1c-S-mIcMFc-18" edge="1">
          <mxGeometry width="50" height="50" relative="1" as="geometry">
            <mxPoint x="1120" y="380" as="sourcePoint" />
            <mxPoint x="450" y="270" as="targetPoint" />
          </mxGeometry>
        </mxCell>
        <mxCell id="79Hl18eER1c-S-mIcMFc-8" value="" style="endArrow=none;html=1;rounded=0;exitX=1;exitY=0.5;exitDx=0;exitDy=0;entryX=1;entryY=0.5;entryDx=0;entryDy=0;" parent="1" source="79Hl18eER1c-S-mIcMFc-18" target="79Hl18eER1c-S-mIcMFc-1" edge="1">
          <mxGeometry width="50" height="50" relative="1" as="geometry">
            <mxPoint x="1300" y="300" as="sourcePoint" />
            <mxPoint x="930" y="230" as="targetPoint" />
          </mxGeometry>
        </mxCell>
        <mxCell id="79Hl18eER1c-S-mIcMFc-9" value="" style="endArrow=none;html=1;rounded=0;entryX=1;entryY=0;entryDx=0;entryDy=0;exitX=0;exitY=0.5;exitDx=0;exitDy=0;" parent="1" source="79Hl18eER1c-S-mIcMFc-2" target="79Hl18eER1c-S-mIcMFc-1" edge="1">
          <mxGeometry width="50" height="50" relative="1" as="geometry">
            <mxPoint x="855" y="380" as="sourcePoint" />
            <mxPoint x="805" y="330" as="targetPoint" />
          </mxGeometry>
        </mxCell>
        <mxCell id="79Hl18eER1c-S-mIcMFc-10" value="" style="endArrow=none;html=1;rounded=0;exitX=1;exitY=0.5;exitDx=0;exitDy=0;entryX=0;entryY=0.5;entryDx=0;entryDy=0;" parent="1" source="79Hl18eER1c-S-mIcMFc-25" target="79Hl18eER1c-S-mIcMFc-19" edge="1">
          <mxGeometry width="50" height="50" relative="1" as="geometry">
            <mxPoint x="290" y="265" as="sourcePoint" />
            <mxPoint x="340" y="215" as="targetPoint" />
          </mxGeometry>
        </mxCell>
        <mxCell id="79Hl18eER1c-S-mIcMFc-11" value="" style="endArrow=none;html=1;rounded=0;entryX=1;entryY=0.5;entryDx=0;entryDy=0;exitX=0;exitY=0.5;exitDx=0;exitDy=0;" parent="1" source="79Hl18eER1c-S-mIcMFc-4" target="79Hl18eER1c-S-mIcMFc-2" edge="1">
          <mxGeometry width="50" height="50" relative="1" as="geometry">
            <mxPoint x="1040" y="290" as="sourcePoint" />
            <mxPoint x="990" y="240" as="targetPoint" />
          </mxGeometry>
        </mxCell>
        <mxCell id="79Hl18eER1c-S-mIcMFc-12" value="" style="endArrow=none;html=1;rounded=0;exitX=0;exitY=0.5;exitDx=0;exitDy=0;entryX=1;entryY=0.5;entryDx=0;entryDy=0;" parent="1" source="79Hl18eER1c-S-mIcMFc-3" target="79Hl18eER1c-S-mIcMFc-2" edge="1">
          <mxGeometry width="50" height="50" relative="1" as="geometry">
            <mxPoint x="990" y="40" as="sourcePoint" />
            <mxPoint x="1130" y="155" as="targetPoint" />
          </mxGeometry>
        </mxCell>
        <mxCell id="79Hl18eER1c-S-mIcMFc-13" value="" style="endArrow=none;html=1;rounded=0;exitX=0;exitY=0.5;exitDx=0;exitDy=0;entryX=1;entryY=0.5;entryDx=0;entryDy=0;" parent="1" source="79Hl18eER1c-S-mIcMFc-5" target="79Hl18eER1c-S-mIcMFc-2" edge="1">
          <mxGeometry width="50" height="50" relative="1" as="geometry">
            <mxPoint x="1030" y="300" as="sourcePoint" />
            <mxPoint x="980" y="250" as="targetPoint" />
          </mxGeometry>
        </mxCell>
        <mxCell id="79Hl18eER1c-S-mIcMFc-14" value="" style="endArrow=none;html=1;rounded=0;exitX=1;exitY=1;exitDx=0;exitDy=0;entryX=0;entryY=0;entryDx=0;entryDy=0;" parent="1" source="79Hl18eER1c-S-mIcMFc-24" target="79Hl18eER1c-S-mIcMFc-22" edge="1">
          <mxGeometry width="50" height="50" relative="1" as="geometry">
            <mxPoint x="120" y="580" as="sourcePoint" />
            <mxPoint x="170" y="530" as="targetPoint" />
          </mxGeometry>
        </mxCell>
        <mxCell id="79Hl18eER1c-S-mIcMFc-15" value="" style="endArrow=none;html=1;rounded=0;exitX=1;exitY=0.5;exitDx=0;exitDy=0;entryX=0;entryY=0.5;entryDx=0;entryDy=0;" parent="1" source="79Hl18eER1c-S-mIcMFc-38" target="79Hl18eER1c-S-mIcMFc-1" edge="1">
          <mxGeometry width="50" height="50" relative="1" as="geometry">
            <mxPoint x="700" y="270" as="sourcePoint" />
            <mxPoint x="750" y="220" as="targetPoint" />
          </mxGeometry>
        </mxCell>
        <mxCell id="79Hl18eER1c-S-mIcMFc-16" value="" style="endArrow=none;html=1;rounded=0;entryX=0;entryY=0.5;entryDx=0;entryDy=0;exitX=1;exitY=0.5;exitDx=0;exitDy=0;" parent="1" source="79Hl18eER1c-S-mIcMFc-19" target="79Hl18eER1c-S-mIcMFc-38" edge="1">
          <mxGeometry width="50" height="50" relative="1" as="geometry">
            <mxPoint x="120" y="160" as="sourcePoint" />
            <mxPoint x="170" y="110" as="targetPoint" />
          </mxGeometry>
        </mxCell>
        <mxCell id="79Hl18eER1c-S-mIcMFc-17" value="TimeOfMsg" style="ellipse;whiteSpace=wrap;html=1;align=center;direction=east;flipH=1;flipV=0;" parent="1" vertex="1">
          <mxGeometry x="1240" y="285" width="100" height="40" as="geometry" />
        </mxCell>
        <mxCell id="79Hl18eER1c-S-mIcMFc-18" value="MsgContent" style="ellipse;whiteSpace=wrap;html=1;align=center;direction=east;flipH=1;flipV=0;" parent="1" vertex="1">
          <mxGeometry x="1035" y="285" width="100" height="40" as="geometry" />
        </mxCell>
        <mxCell id="79Hl18eER1c-S-mIcMFc-19" value="Customer" style="html=1;dashed=0;whiteSpace=wrap;" parent="1" vertex="1">
          <mxGeometry x="200" y="280" width="100" height="50" as="geometry" />
        </mxCell>
        <mxCell id="79Hl18eER1c-S-mIcMFc-20" value="ListingDate" style="ellipse;whiteSpace=wrap;html=1;align=center;" parent="1" vertex="1">
          <mxGeometry x="290" y="-250" width="100" height="40" as="geometry" />
        </mxCell>
        <mxCell id="79Hl18eER1c-S-mIcMFc-21" value="Email" style="ellipse;whiteSpace=wrap;html=1;align=center;" parent="1" vertex="1">
          <mxGeometry x="-160" y="200" width="100" height="40" as="geometry" />
        </mxCell>
        <mxCell id="79Hl18eER1c-S-mIcMFc-22" value="Lastname" style="ellipse;whiteSpace=wrap;html=1;align=center;" parent="1" vertex="1">
          <mxGeometry x="20" y="600" width="100" height="40" as="geometry" />
        </mxCell>
        <mxCell id="79Hl18eER1c-S-mIcMFc-23" value="Firstname" style="ellipse;whiteSpace=wrap;html=1;align=center;" parent="1" vertex="1">
          <mxGeometry x="-180" y="600" width="100" height="40" as="geometry" />
        </mxCell>
        <mxCell id="79Hl18eER1c-S-mIcMFc-24" value="Name" style="ellipse;whiteSpace=wrap;html=1;align=center;" parent="1" vertex="1">
          <mxGeometry x="-80" y="500" width="100" height="40" as="geometry" />
        </mxCell>
        <mxCell id="79Hl18eER1c-S-mIcMFc-25" value="CustomerID" style="ellipse;whiteSpace=wrap;html=1;align=center;" parent="1" vertex="1">
          <mxGeometry x="-160" y="265" width="100" height="40" as="geometry" />
        </mxCell>
        <mxCell id="79Hl18eER1c-S-mIcMFc-26" value="TransactionID" style="ellipse;whiteSpace=wrap;html=1;align=center;" parent="1" vertex="1">
          <mxGeometry x="805" y="140" width="100" height="40" as="geometry" />
        </mxCell>
        <mxCell id="79Hl18eER1c-S-mIcMFc-27" value="DateOfTransaction" style="ellipse;whiteSpace=wrap;html=1;align=center;" parent="1" vertex="1">
          <mxGeometry x="950" y="-50" width="100" height="40" as="geometry" />
        </mxCell>
        <mxCell id="79Hl18eER1c-S-mIcMFc-28" value="ItemDesc" style="ellipse;whiteSpace=wrap;html=1;align=center;" parent="1" vertex="1">
          <mxGeometry x="-10" y="-190" width="100" height="40" as="geometry" />
        </mxCell>
        <mxCell id="79Hl18eER1c-S-mIcMFc-29" value="ItemImage" style="ellipse;whiteSpace=wrap;html=1;align=center;" parent="1" vertex="1">
          <mxGeometry x="60" y="-240" width="100" height="40" as="geometry" />
        </mxCell>
        <mxCell id="79Hl18eER1c-S-mIcMFc-30" value="ItemID" style="ellipse;whiteSpace=wrap;html=1;align=center;" parent="1" vertex="1">
          <mxGeometry x="-30" y="-120" width="100" height="40" as="geometry" />
        </mxCell>
        <mxCell id="79Hl18eER1c-S-mIcMFc-31" value="State" style="ellipse;whiteSpace=wrap;html=1;align=center;" parent="1" vertex="1">
          <mxGeometry x="-140" y="350" width="100" height="40" as="geometry" />
        </mxCell>
        <mxCell id="79Hl18eER1c-S-mIcMFc-32" value="City" style="ellipse;whiteSpace=wrap;html=1;align=center;" parent="1" vertex="1">
          <mxGeometry x="-40" y="90" width="100" height="40" as="geometry" />
        </mxCell>
        <mxCell id="79Hl18eER1c-S-mIcMFc-33" value="Address" style="ellipse;whiteSpace=wrap;html=1;align=center;" parent="1" vertex="1">
          <mxGeometry x="-100" y="420" width="100" height="40" as="geometry" />
        </mxCell>
        <mxCell id="79Hl18eER1c-S-mIcMFc-34" value="SellerID" style="ellipse;whiteSpace=wrap;html=1;align=center;" parent="1" vertex="1">
          <mxGeometry x="-40" y="-45" width="100" height="40" as="geometry" />
        </mxCell>
        <mxCell id="79Hl18eER1c-S-mIcMFc-35" value="Price" style="ellipse;whiteSpace=wrap;html=1;align=center;" parent="1" vertex="1">
          <mxGeometry x="170" y="-250" width="100" height="40" as="geometry" />
        </mxCell>
        <mxCell id="79Hl18eER1c-S-mIcMFc-36" value="Reviews" style="ellipse;whiteSpace=wrap;html=1;align=center;" parent="1" vertex="1">
          <mxGeometry x="370" y="-200" width="100" height="40" as="geometry" />
        </mxCell>
        <mxCell id="79Hl18eER1c-S-mIcMFc-37" value="Phone" style="ellipse;whiteSpace=wrap;html=1;align=center;" parent="1" vertex="1">
          <mxGeometry x="-110" y="140" width="100" height="40" as="geometry" />
        </mxCell>
        <mxCell id="79Hl18eER1c-S-mIcMFc-38" value="Manage" style="rhombus;" parent="1" vertex="1">
          <mxGeometry x="500" y="265" width="105" height="80" as="geometry" />
        </mxCell>
        <mxCell id="79Hl18eER1c-S-mIcMFc-39" value="" style="endArrow=none;html=1;rounded=0;entryX=0.5;entryY=1;entryDx=0;entryDy=0;exitX=0.5;exitY=0;exitDx=0;exitDy=0;" parent="1" source="79Hl18eER1c-S-mIcMFc-24" target="79Hl18eER1c-S-mIcMFc-19" edge="1">
          <mxGeometry width="50" height="50" relative="1" as="geometry">
            <mxPoint x="160" y="320" as="sourcePoint" />
            <mxPoint x="210" y="270" as="targetPoint" />
          </mxGeometry>
        </mxCell>
        <mxCell id="79Hl18eER1c-S-mIcMFc-40" value="" style="endArrow=none;html=1;rounded=0;exitX=0.5;exitY=1;exitDx=0;exitDy=0;entryX=0.5;entryY=0;entryDx=0;entryDy=0;" parent="1" edge="1" target="79Hl18eER1c-S-mIcMFc-63" source="79Hl18eER1c-S-mIcMFc-60">
          <mxGeometry width="50" height="50" relative="1" as="geometry">
            <mxPoint x="955" y="-110" as="sourcePoint" />
            <mxPoint x="1005" y="-160" as="targetPoint" />
          </mxGeometry>
        </mxCell>
        <mxCell id="79Hl18eER1c-S-mIcMFc-41" value="" style="endArrow=none;html=1;rounded=0;exitX=1;exitY=0.5;exitDx=0;exitDy=0;entryX=0;entryY=0.5;entryDx=0;entryDy=0;" parent="1" edge="1" target="79Hl18eER1c-S-mIcMFc-60" source="PFb1qvLhgzvKeDgTh8UG-2">
          <mxGeometry width="50" height="50" relative="1" as="geometry">
            <mxPoint x="570" y="90" as="sourcePoint" />
            <mxPoint x="620" y="40" as="targetPoint" />
          </mxGeometry>
        </mxCell>
        <mxCell id="79Hl18eER1c-S-mIcMFc-42" value="" style="endArrow=none;html=1;rounded=0;exitX=1;exitY=0.5;exitDx=0;exitDy=0;entryX=0;entryY=0.5;entryDx=0;entryDy=0;" parent="1" edge="1" target="PFb1qvLhgzvKeDgTh8UG-2" source="79Hl18eER1c-S-mIcMFc-58">
          <mxGeometry width="50" height="50" relative="1" as="geometry">
            <mxPoint x="480" y="90" as="sourcePoint" />
            <mxPoint x="530" y="40" as="targetPoint" />
          </mxGeometry>
        </mxCell>
        <mxCell id="79Hl18eER1c-S-mIcMFc-43" value="" style="endArrow=none;html=1;rounded=0;entryX=0;entryY=1;entryDx=0;entryDy=0;exitX=1;exitY=0;exitDx=0;exitDy=0;" parent="1" source="79Hl18eER1c-S-mIcMFc-58" target="79Hl18eER1c-S-mIcMFc-36" edge="1">
          <mxGeometry width="50" height="50" relative="1" as="geometry">
            <mxPoint x="380" y="-60" as="sourcePoint" />
            <mxPoint x="430" y="-110" as="targetPoint" />
          </mxGeometry>
        </mxCell>
        <mxCell id="79Hl18eER1c-S-mIcMFc-44" value="" style="endArrow=none;html=1;rounded=0;exitX=0;exitY=1;exitDx=0;exitDy=0;entryX=0.75;entryY=0;entryDx=0;entryDy=0;" parent="1" source="79Hl18eER1c-S-mIcMFc-20" target="79Hl18eER1c-S-mIcMFc-58" edge="1">
          <mxGeometry width="50" height="50" relative="1" as="geometry">
            <mxPoint x="450" y="-150" as="sourcePoint" />
            <mxPoint x="500" y="-200" as="targetPoint" />
          </mxGeometry>
        </mxCell>
        <mxCell id="79Hl18eER1c-S-mIcMFc-45" value="" style="endArrow=none;html=1;rounded=0;exitX=0.5;exitY=1;exitDx=0;exitDy=0;entryX=0.5;entryY=0;entryDx=0;entryDy=0;" parent="1" source="79Hl18eER1c-S-mIcMFc-35" target="79Hl18eER1c-S-mIcMFc-58" edge="1">
          <mxGeometry width="50" height="50" relative="1" as="geometry">
            <mxPoint x="330" y="-230" as="sourcePoint" />
            <mxPoint x="380" y="-280" as="targetPoint" />
          </mxGeometry>
        </mxCell>
        <mxCell id="79Hl18eER1c-S-mIcMFc-46" value="" style="endArrow=none;html=1;rounded=0;exitX=1;exitY=1;exitDx=0;exitDy=0;entryX=0.25;entryY=0;entryDx=0;entryDy=0;" parent="1" source="79Hl18eER1c-S-mIcMFc-29" target="79Hl18eER1c-S-mIcMFc-58" edge="1">
          <mxGeometry width="50" height="50" relative="1" as="geometry">
            <mxPoint x="240" y="-180" as="sourcePoint" />
            <mxPoint x="290" y="-230" as="targetPoint" />
          </mxGeometry>
        </mxCell>
        <mxCell id="79Hl18eER1c-S-mIcMFc-47" value="" style="endArrow=none;html=1;rounded=0;exitX=1;exitY=1;exitDx=0;exitDy=0;entryX=0;entryY=0;entryDx=0;entryDy=0;" parent="1" source="79Hl18eER1c-S-mIcMFc-28" target="79Hl18eER1c-S-mIcMFc-58" edge="1">
          <mxGeometry width="50" height="50" relative="1" as="geometry">
            <mxPoint x="193.75" y="-150" as="sourcePoint" />
            <mxPoint x="243.75" y="-200" as="targetPoint" />
          </mxGeometry>
        </mxCell>
        <mxCell id="79Hl18eER1c-S-mIcMFc-48" value="" style="endArrow=none;html=1;rounded=0;exitX=1;exitY=0.5;exitDx=0;exitDy=0;entryX=0;entryY=0.25;entryDx=0;entryDy=0;" parent="1" source="79Hl18eER1c-S-mIcMFc-30" target="79Hl18eER1c-S-mIcMFc-58" edge="1">
          <mxGeometry width="50" height="50" relative="1" as="geometry">
            <mxPoint x="140" y="-160" as="sourcePoint" />
            <mxPoint x="190" y="-210" as="targetPoint" />
          </mxGeometry>
        </mxCell>
        <mxCell id="79Hl18eER1c-S-mIcMFc-49" value="" style="endArrow=none;html=1;rounded=0;exitX=1;exitY=0.5;exitDx=0;exitDy=0;entryX=0;entryY=0.5;entryDx=0;entryDy=0;" parent="1" source="79Hl18eER1c-S-mIcMFc-34" target="79Hl18eER1c-S-mIcMFc-58" edge="1">
          <mxGeometry width="50" height="50" relative="1" as="geometry">
            <mxPoint x="100" y="-60" as="sourcePoint" />
            <mxPoint x="150" y="-110" as="targetPoint" />
          </mxGeometry>
        </mxCell>
        <mxCell id="79Hl18eER1c-S-mIcMFc-50" value="" style="endArrow=none;html=1;rounded=0;exitX=0.5;exitY=0;exitDx=0;exitDy=0;entryX=0.5;entryY=1;entryDx=0;entryDy=0;" parent="1" source="79Hl18eER1c-S-mIcMFc-19" target="79Hl18eER1c-S-mIcMFc-59" edge="1">
          <mxGeometry width="50" height="50" relative="1" as="geometry">
            <mxPoint x="370" y="135" as="sourcePoint" />
            <mxPoint x="420" y="85" as="targetPoint" />
          </mxGeometry>
        </mxCell>
        <mxCell id="79Hl18eER1c-S-mIcMFc-51" value="" style="endArrow=none;html=1;rounded=0;entryX=0.5;entryY=1;entryDx=0;entryDy=0;exitX=0.5;exitY=0;exitDx=0;exitDy=0;" parent="1" source="79Hl18eER1c-S-mIcMFc-59" target="79Hl18eER1c-S-mIcMFc-58" edge="1">
          <mxGeometry width="50" height="50" relative="1" as="geometry">
            <mxPoint x="280" y="60" as="sourcePoint" />
            <mxPoint x="425" y="-20" as="targetPoint" />
          </mxGeometry>
        </mxCell>
        <mxCell id="79Hl18eER1c-S-mIcMFc-52" value="" style="endArrow=none;html=1;rounded=0;exitX=1;exitY=0.5;exitDx=0;exitDy=0;entryX=0;entryY=1;entryDx=0;entryDy=0;" parent="1" source="79Hl18eER1c-S-mIcMFc-33" target="79Hl18eER1c-S-mIcMFc-19" edge="1">
          <mxGeometry width="50" height="50" relative="1" as="geometry">
            <mxPoint x="90" y="440" as="sourcePoint" />
            <mxPoint x="140" y="390" as="targetPoint" />
          </mxGeometry>
        </mxCell>
        <mxCell id="79Hl18eER1c-S-mIcMFc-53" value="" style="endArrow=none;html=1;rounded=0;exitX=0.5;exitY=1;exitDx=0;exitDy=0;entryX=0;entryY=0;entryDx=0;entryDy=0;" parent="1" source="79Hl18eER1c-S-mIcMFc-32" target="79Hl18eER1c-S-mIcMFc-19" edge="1">
          <mxGeometry width="50" height="50" relative="1" as="geometry">
            <mxPoint x="610" y="50" as="sourcePoint" />
            <mxPoint x="660" as="targetPoint" />
          </mxGeometry>
        </mxCell>
        <mxCell id="79Hl18eER1c-S-mIcMFc-54" value="" style="endArrow=none;html=1;rounded=0;entryX=0;entryY=0;entryDx=0;entryDy=0;exitX=1;exitY=1;exitDx=0;exitDy=0;" parent="1" source="79Hl18eER1c-S-mIcMFc-37" target="79Hl18eER1c-S-mIcMFc-19" edge="1">
          <mxGeometry width="50" height="50" relative="1" as="geometry">
            <mxPoint x="15" y="220" as="sourcePoint" />
            <mxPoint x="65" y="170" as="targetPoint" />
          </mxGeometry>
        </mxCell>
        <mxCell id="79Hl18eER1c-S-mIcMFc-55" value="" style="endArrow=none;html=1;rounded=0;entryX=1;entryY=0.5;entryDx=0;entryDy=0;exitX=0;exitY=0.75;exitDx=0;exitDy=0;" parent="1" source="79Hl18eER1c-S-mIcMFc-19" target="79Hl18eER1c-S-mIcMFc-31" edge="1">
          <mxGeometry width="50" height="50" relative="1" as="geometry">
            <mxPoint x="15" y="220" as="sourcePoint" />
            <mxPoint x="65" y="170" as="targetPoint" />
          </mxGeometry>
        </mxCell>
        <mxCell id="79Hl18eER1c-S-mIcMFc-56" value="" style="endArrow=none;html=1;rounded=0;exitX=1;exitY=0.5;exitDx=0;exitDy=0;entryX=0;entryY=0.25;entryDx=0;entryDy=0;" parent="1" source="79Hl18eER1c-S-mIcMFc-21" target="79Hl18eER1c-S-mIcMFc-19" edge="1">
          <mxGeometry width="50" height="50" relative="1" as="geometry">
            <mxPoint x="240" y="180" as="sourcePoint" />
            <mxPoint x="290" y="130" as="targetPoint" />
          </mxGeometry>
        </mxCell>
        <mxCell id="79Hl18eER1c-S-mIcMFc-57" value="" style="endArrow=none;html=1;rounded=0;entryX=1;entryY=0;entryDx=0;entryDy=0;exitX=0;exitY=1;exitDx=0;exitDy=0;" parent="1" source="79Hl18eER1c-S-mIcMFc-24" target="79Hl18eER1c-S-mIcMFc-23" edge="1">
          <mxGeometry width="50" height="50" relative="1" as="geometry">
            <mxPoint x="-360" y="340" as="sourcePoint" />
            <mxPoint x="-310" y="290" as="targetPoint" />
          </mxGeometry>
        </mxCell>
        <mxCell id="79Hl18eER1c-S-mIcMFc-58" value="Item" style="html=1;dashed=0;whiteSpace=wrap;" parent="1" vertex="1">
          <mxGeometry x="200" y="-50" width="100" height="50" as="geometry" />
        </mxCell>
        <mxCell id="79Hl18eER1c-S-mIcMFc-59" value="Offer" style="shape=rhombus;html=1;dashed=0;whiteSpace=wrap;perimeter=rhombusPerimeter;" parent="1" vertex="1">
          <mxGeometry x="193.75" y="100" width="112.5" height="80" as="geometry" />
        </mxCell>
        <mxCell id="79Hl18eER1c-S-mIcMFc-60" value="Transaction" style="html=1;dashed=0;whiteSpace=wrap;" parent="1" vertex="1">
          <mxGeometry x="750" y="-50" width="100" height="50" as="geometry" />
        </mxCell>
        <mxCell id="79Hl18eER1c-S-mIcMFc-63" value="IDs" style="ellipse;whiteSpace=wrap;html=1;align=center;" parent="1" vertex="1">
          <mxGeometry x="750" y="50" width="100" height="40" as="geometry" />
        </mxCell>
        <mxCell id="79Hl18eER1c-S-mIcMFc-65" value="BuyerID" style="ellipse;whiteSpace=wrap;html=1;align=center;" parent="1" vertex="1">
          <mxGeometry x="705" y="140" width="100" height="40" as="geometry" />
        </mxCell>
        <mxCell id="79Hl18eER1c-S-mIcMFc-66" value="ItemID" style="ellipse;whiteSpace=wrap;html=1;align=center;" parent="1" vertex="1">
          <mxGeometry x="645" y="100" width="100" height="40" as="geometry" />
        </mxCell>
        <mxCell id="79Hl18eER1c-S-mIcMFc-67" value="SellerID" style="ellipse;whiteSpace=wrap;html=1;align=center;" parent="1" vertex="1">
          <mxGeometry x="870" y="100" width="100" height="40" as="geometry" />
        </mxCell>
        <mxCell id="79Hl18eER1c-S-mIcMFc-68" value="Amount" style="ellipse;whiteSpace=wrap;html=1;align=center;" parent="1" vertex="1">
          <mxGeometry x="930" y="30" width="100" height="40" as="geometry" />
        </mxCell>
        <mxCell id="PFb1qvLhgzvKeDgTh8UG-2" value="Sold" style="rhombus;" vertex="1" parent="1">
          <mxGeometry x="470" y="-65" width="105" height="80" as="geometry" />
        </mxCell>
        <mxCell id="PFb1qvLhgzvKeDgTh8UG-4" value="" style="endArrow=none;html=1;rounded=0;exitX=1;exitY=0;exitDx=0;exitDy=0;entryX=0;entryY=1;entryDx=0;entryDy=0;" edge="1" parent="1" source="79Hl18eER1c-S-mIcMFc-66" target="79Hl18eER1c-S-mIcMFc-63">
          <mxGeometry width="50" height="50" relative="1" as="geometry">
            <mxPoint x="890" y="20" as="sourcePoint" />
            <mxPoint x="940" y="-30" as="targetPoint" />
          </mxGeometry>
        </mxCell>
        <mxCell id="PFb1qvLhgzvKeDgTh8UG-5" value="" style="endArrow=none;html=1;rounded=0;exitX=0.5;exitY=0;exitDx=0;exitDy=0;entryX=0.5;entryY=1;entryDx=0;entryDy=0;" edge="1" parent="1" source="79Hl18eER1c-S-mIcMFc-65" target="79Hl18eER1c-S-mIcMFc-63">
          <mxGeometry width="50" height="50" relative="1" as="geometry">
            <mxPoint x="1020" as="sourcePoint" />
            <mxPoint x="1070" y="-50" as="targetPoint" />
          </mxGeometry>
        </mxCell>
        <mxCell id="PFb1qvLhgzvKeDgTh8UG-6" value="" style="endArrow=none;html=1;rounded=0;exitX=0.5;exitY=0;exitDx=0;exitDy=0;entryX=0.5;entryY=1;entryDx=0;entryDy=0;" edge="1" parent="1" source="79Hl18eER1c-S-mIcMFc-26" target="79Hl18eER1c-S-mIcMFc-63">
          <mxGeometry width="50" height="50" relative="1" as="geometry">
            <mxPoint x="1020" y="5" as="sourcePoint" />
            <mxPoint x="1070" y="-45" as="targetPoint" />
          </mxGeometry>
        </mxCell>
        <mxCell id="PFb1qvLhgzvKeDgTh8UG-7" value="" style="endArrow=none;html=1;rounded=0;exitX=1;exitY=1;exitDx=0;exitDy=0;entryX=0;entryY=0;entryDx=0;entryDy=0;" edge="1" parent="1" source="79Hl18eER1c-S-mIcMFc-63" target="79Hl18eER1c-S-mIcMFc-67">
          <mxGeometry width="50" height="50" relative="1" as="geometry">
            <mxPoint x="1000" y="15" as="sourcePoint" />
            <mxPoint x="1050" y="-35" as="targetPoint" />
          </mxGeometry>
        </mxCell>
        <mxCell id="PFb1qvLhgzvKeDgTh8UG-8" value="" style="endArrow=none;html=1;rounded=0;exitX=1;exitY=0.5;exitDx=0;exitDy=0;entryX=0;entryY=0.5;entryDx=0;entryDy=0;" edge="1" parent="1" source="79Hl18eER1c-S-mIcMFc-60" target="79Hl18eER1c-S-mIcMFc-27">
          <mxGeometry width="50" height="50" relative="1" as="geometry">
            <mxPoint x="990" y="-80" as="sourcePoint" />
            <mxPoint x="1040" y="-130" as="targetPoint" />
          </mxGeometry>
        </mxCell>
        <mxCell id="PFb1qvLhgzvKeDgTh8UG-9" value="" style="endArrow=none;html=1;rounded=0;exitX=1;exitY=1;exitDx=0;exitDy=0;entryX=0;entryY=0.5;entryDx=0;entryDy=0;" edge="1" parent="1" source="79Hl18eER1c-S-mIcMFc-60" target="79Hl18eER1c-S-mIcMFc-68">
          <mxGeometry width="50" height="50" relative="1" as="geometry">
            <mxPoint x="1090" y="30" as="sourcePoint" />
            <mxPoint x="1140" y="-20" as="targetPoint" />
          </mxGeometry>
        </mxCell>
        <mxCell id="PFb1qvLhgzvKeDgTh8UG-16" value="N" style="text;html=1;align=center;verticalAlign=middle;resizable=0;points=[];autosize=1;strokeColor=none;fillColor=none;" vertex="1" parent="1">
          <mxGeometry x="365" y="-62" width="30" height="30" as="geometry" />
        </mxCell>
        <mxCell id="PFb1qvLhgzvKeDgTh8UG-17" value="1" style="text;html=1;align=center;verticalAlign=middle;resizable=0;points=[];autosize=1;strokeColor=none;fillColor=none;" vertex="1" parent="1">
          <mxGeometry x="665" y="-62" width="30" height="30" as="geometry" />
        </mxCell>
        <mxCell id="PFb1qvLhgzvKeDgTh8UG-18" value="M" style="text;html=1;align=center;verticalAlign=middle;resizable=0;points=[];autosize=1;strokeColor=none;fillColor=none;" vertex="1" parent="1">
          <mxGeometry x="205" y="40" width="30" height="30" as="geometry" />
        </mxCell>
        <mxCell id="PFb1qvLhgzvKeDgTh8UG-19" value="N" style="text;html=1;align=center;verticalAlign=middle;resizable=0;points=[];autosize=1;strokeColor=none;fillColor=none;" vertex="1" parent="1">
          <mxGeometry x="205" y="210" width="30" height="30" as="geometry" />
        </mxCell>
        <mxCell id="PFb1qvLhgzvKeDgTh8UG-20" value="1" style="text;html=1;align=center;verticalAlign=middle;resizable=0;points=[];autosize=1;strokeColor=none;fillColor=none;" vertex="1" parent="1">
          <mxGeometry x="405" y="268" width="30" height="30" as="geometry" />
        </mxCell>
        <mxCell id="PFb1qvLhgzvKeDgTh8UG-21" value="N" style="text;html=1;align=center;verticalAlign=middle;resizable=0;points=[];autosize=1;strokeColor=none;fillColor=none;" vertex="1" parent="1">
          <mxGeometry x="725" y="268" width="30" height="30" as="geometry" />
        </mxCell>
      </root>
    </mxGraphModel>
  </diagram>
</mxfile>
